<svg width="145" height="70" viewBox="0 0 145 70" fill="none" xmlns="http://www.w3.org/2000/svg">
<path d="M27.1015 51.9661C19.1178 52.8915 18.6112 60.5998 13.6274 62.8137C8.64359 65.0276 1.33301 58.5736 1.33301 58.5736V69.8335H143.06V41.3341C138.606 43.5456 136.675 54.1311 130.213 57.0995C123.751 60.0679 126.047 43.2008 120.651 34.8527C115.256 26.5046 110.998 47.8594 104.407 46.425C97.816 44.9906 96.6404 53.9012 91.829 52.1852C87.0175 50.4692 84.1545 41.2145 78.6385 38.3852C73.1224 35.5558 71.0891 11.7356 65.7542 6.52815C60.4193 1.32072 58.2451 24.5915 52.87 25.6153C47.4948 26.639 44.5154 9.15594 39.9857 11.7356C35.4561 14.3152 35.0852 51.0406 27.1015 51.9661Z" fill="url(#paint0_linear_1013_5948)"/>
<path d="M1.33301 58.5962C2.62839 59.6531 8.51135 64.9979 13.7858 62.6549C19.0603 60.3119 19.1993 51.9661 27.1015 51.9661C35.0038 51.9661 35.4561 14.3152 39.9858 11.7356C44.5154 9.15594 47.4949 26.639 52.87 25.6153C58.2452 24.5916 60.4194 1.32072 65.7542 6.52815C71.0891 11.7356 73.1224 35.5558 78.6385 38.3852C84.1546 41.2145 86.4848 50.25 91.2962 51.9661C96.1077 53.6821 96.5866 46.425 104.407 46.425C112.227 46.425 115.306 26.5883 120.701 34.9364C126.096 43.2845 123.713 60.1563 130.175 57.1879C136.638 54.2195 138.061 44.1067 143.06 41.458" stroke="#5DC264" stroke-width="2" stroke-linecap="round" stroke-linejoin="round"/>
<defs>
<linearGradient id="paint0_linear_1013_5948" x1="72.1964" y1="5.76953" x2="72.1964" y2="69.8335" gradientUnits="userSpaceOnUse">
<stop stop-color="#F04438" stop-opacity="0.3"/>
<stop offset="0.0001" stop-color="#5DC264" stop-opacity="0.3"/>
<stop offset="1" stop-color="white" stop-opacity="0"/>
</linearGradient>
</defs>
</svg>
