<svg width="160" height="71" viewBox="0 0 160 71" fill="none" xmlns="http://www.w3.org/2000/svg">
<path d="M15.8704 31.5349C10.0196 33.5092 1 56.8108 1 56.8108V70.9831H159V41.2949C159 41.2949 147.818 21.6799 145.257 19.5226C142.695 17.3652 136.069 16.7697 130.222 17.02C124.375 17.2703 119.64 4.00665 114.732 3.75639C109.825 3.50613 103.91 23.0262 99.2424 23.5267C94.5751 24.0272 86.5018 7.00973 80.7153 5.50819C74.9289 4.00665 68.4646 13.2661 62.416 13.5164C56.3674 13.7667 53.0841 0.753307 46.8502 1.00356C40.6163 1.25382 38.245 27.048 31.5121 32.7862C25.5683 37.8519 21.9534 29.4822 15.8704 31.5349Z" fill="url(#paint0_linear_1013_5908)"/>
<path d="M1 56.8108C1 56.8108 10.0196 33.5092 15.8704 31.5349C21.9534 29.4822 25.5683 37.8519 31.5121 32.7862C38.245 27.048 40.6163 1.25382 46.8502 1.00356C53.0841 0.753307 56.3674 13.7667 62.416 13.5164C68.4646 13.2661 74.9289 4.00665 80.7153 5.50819C86.5018 7.00973 94.5752 24.0272 99.2424 23.5267C103.91 23.0262 109.825 3.50613 114.732 3.75639C119.64 4.00665 124.375 17.2703 130.222 17.02C136.069 16.7697 142.695 17.3652 145.257 19.5226C147.818 21.6799 159 41.2949 159 41.2949" stroke="#F04438" stroke-width="2" stroke-linecap="round" stroke-linejoin="round"/>
<defs>
<linearGradient id="paint0_linear_1013_5908" x1="80" y1="1" x2="80" y2="70.9831" gradientUnits="userSpaceOnUse">
<stop stop-color="#F04438" stop-opacity="0.3"/>
<stop offset="1" stop-color="white" stop-opacity="0"/>
</linearGradient>
</defs>
</svg>
