<svg width="161" height="71" viewBox="0 0 161 71" fill="none" xmlns="http://www.w3.org/2000/svg">
<path opacity="0.8" d="M31.4937 28.9942C18.9404 28.3582 1.95117 38.3267 1.95117 38.3267V70.9905H159.38V28.9942C159.38 28.9942 147.282 34.8456 139.028 33.8509C125.854 32.2631 133.305 15.7859 120.515 12.9956C111.251 10.9746 105.235 19.0723 96.2246 16.5191C87.1581 13.9501 90.2464 5.16599 81.6503 1.85376C62.2093 -5.63722 78.1882 38.6391 56.1781 38.3267C45.3092 38.1725 42.3382 29.5437 31.4937 28.9942Z" fill="url(#paint0_linear_1013_5927)"/>
<path d="M1.95117 38.3267C1.95117 38.3267 18.9404 28.3582 31.4937 28.9942C42.3382 29.5437 45.3092 38.1724 56.1781 38.3267C78.1882 38.6391 62.2093 -5.63722 81.6503 1.85376C90.2464 5.16599 87.1581 13.9501 96.2246 16.5191C105.235 19.0723 111.251 10.9746 120.515 12.9956C133.305 15.7859 125.854 32.2631 139.028 33.8509C147.282 34.8456 159.38 28.9942 159.38 28.9942" stroke="#F04438" stroke-width="2" stroke-linecap="round" stroke-linejoin="round"/>
<defs>
<linearGradient id="paint0_linear_1013_5927" x1="80.6656" y1="1" x2="80.6656" y2="70.9905" gradientUnits="userSpaceOnUse">
<stop stop-color="#F04438" stop-opacity="0.3"/>
<stop offset="1" stop-color="white" stop-opacity="0"/>
</linearGradient>
</defs>
</svg>
