<svg width="48" height="48" viewBox="0 0 48 48" fill="none" xmlns="http://www.w3.org/2000/svg">
<path d="M21.1601 22.87C21.0601 22.86 20.9401 22.86 20.8301 22.87C18.4501 22.79 16.5601 20.84 16.5601 18.44C16.5601 15.99 18.5401 14 21.0001 14C23.4501 14 25.4401 15.99 25.4401 18.44C25.4301 20.84 23.5401 22.79 21.1601 22.87Z" stroke="#5F6D7E" stroke-width="2" stroke-linecap="round" stroke-linejoin="round"/>
<path d="M28.4098 16C30.3498 16 31.9098 17.57 31.9098 19.5C31.9098 21.39 30.4098 22.93 28.5398 23C28.4598 22.99 28.3698 22.99 28.2798 23" stroke="#5F6D7E" stroke-width="2" stroke-linecap="round" stroke-linejoin="round"/>
<path d="M16.1602 26.56C13.7402 28.18 13.7402 30.82 16.1602 32.43C18.9102 34.27 23.4202 34.27 26.1702 32.43C28.5902 30.81 28.5902 28.17 26.1702 26.56C23.4302 24.73 18.9202 24.73 16.1602 26.56Z" stroke="#5F6D7E" stroke-width="2" stroke-linecap="round" stroke-linejoin="round"/>
<path d="M30.3398 32C31.0598 31.85 31.7398 31.56 32.2998 31.13C33.8598 29.96 33.8598 28.03 32.2998 26.86C31.7498 26.44 31.0798 26.16 30.3698 26" stroke="#5F6D7E" stroke-width="2" stroke-linecap="round" stroke-linejoin="round"/>
</svg>
